<mxfile host="app.diagrams.net" agent="Mozilla/5.0 (X11; Linux x86_64; rv:129.0) Gecko/20100101 Firefox/129.0" version="24.7.12">
  <diagram name="Page-1" id="PGLo4tSBcLBoqf4Q5bPK">
    <mxGraphModel dx="1434" dy="807" grid="1" gridSize="10" guides="1" tooltips="1" connect="1" arrows="1" fold="1" page="1" pageScale="1" pageWidth="850" pageHeight="1100" math="0" shadow="0">
      <root>
        <mxCell id="0" />
        <mxCell id="1" parent="0" />
        <mxCell id="2fNQK_tJIayvAflCLeJH-1" value="Android HAL3" style="whiteSpace=wrap;html=1;" vertex="1" parent="1">
          <mxGeometry x="405" y="140" width="120" height="60" as="geometry" />
        </mxCell>
        <mxCell id="2fNQK_tJIayvAflCLeJH-2" value="" style="endArrow=none;html=1;rounded=0;" edge="1" parent="1">
          <mxGeometry width="50" height="50" relative="1" as="geometry">
            <mxPoint x="170" y="220" as="sourcePoint" />
            <mxPoint x="680" y="220" as="targetPoint" />
          </mxGeometry>
        </mxCell>
        <mxCell id="2fNQK_tJIayvAflCLeJH-3" value="&lt;div&gt;Adaption&lt;/div&gt;" style="text;html=1;align=center;verticalAlign=middle;resizable=0;points=[];autosize=1;strokeColor=none;fillColor=none;" vertex="1" parent="1">
          <mxGeometry x="70" y="140" width="70" height="30" as="geometry" />
        </mxCell>
        <mxCell id="2fNQK_tJIayvAflCLeJH-4" value="&lt;div&gt;GStreamer&lt;/div&gt;" style="whiteSpace=wrap;html=1;" vertex="1" parent="1">
          <mxGeometry x="260" y="140" width="120" height="60" as="geometry" />
        </mxCell>
        <mxCell id="2fNQK_tJIayvAflCLeJH-9" value="" style="endArrow=none;html=1;rounded=0;" edge="1" parent="1">
          <mxGeometry width="50" height="50" relative="1" as="geometry">
            <mxPoint x="165" y="400" as="sourcePoint" />
            <mxPoint x="675" y="400" as="targetPoint" />
          </mxGeometry>
        </mxCell>
        <mxCell id="2fNQK_tJIayvAflCLeJH-10" value="Pipelines" style="text;html=1;align=center;verticalAlign=middle;resizable=0;points=[];autosize=1;strokeColor=none;fillColor=none;" vertex="1" parent="1">
          <mxGeometry x="70" y="290" width="70" height="30" as="geometry" />
        </mxCell>
        <mxCell id="2fNQK_tJIayvAflCLeJH-11" value="" style="endArrow=none;html=1;rounded=0;" edge="1" parent="1">
          <mxGeometry width="50" height="50" relative="1" as="geometry">
            <mxPoint x="165" y="490" as="sourcePoint" />
            <mxPoint x="675" y="490" as="targetPoint" />
          </mxGeometry>
        </mxCell>
        <mxCell id="2fNQK_tJIayvAflCLeJH-12" value="Core" style="text;html=1;align=center;verticalAlign=middle;resizable=0;points=[];autosize=1;strokeColor=none;fillColor=none;" vertex="1" parent="1">
          <mxGeometry x="75" y="435" width="50" height="30" as="geometry" />
        </mxCell>
        <mxCell id="2fNQK_tJIayvAflCLeJH-13" value="" style="whiteSpace=wrap;html=1;" vertex="1" parent="1">
          <mxGeometry x="175" y="235" width="265" height="135" as="geometry" />
        </mxCell>
        <mxCell id="2fNQK_tJIayvAflCLeJH-14" value="IPA module" style="text;html=1;align=center;verticalAlign=middle;whiteSpace=wrap;rounded=0;" vertex="1" parent="1">
          <mxGeometry x="175" y="240" width="60" height="30" as="geometry" />
        </mxCell>
        <mxCell id="2fNQK_tJIayvAflCLeJH-15" value="Camera manager" style="whiteSpace=wrap;html=1;" vertex="1" parent="1">
          <mxGeometry x="460" y="237.5" width="110" height="35" as="geometry" />
        </mxCell>
        <mxCell id="2fNQK_tJIayvAflCLeJH-16" value="Device enumerator" style="whiteSpace=wrap;html=1;" vertex="1" parent="1">
          <mxGeometry x="580" y="237.5" width="120" height="35" as="geometry" />
        </mxCell>
        <mxCell id="2fNQK_tJIayvAflCLeJH-17" value="&lt;div&gt;IPA &amp;amp; IPC&lt;/div&gt;" style="whiteSpace=wrap;html=1;" vertex="1" parent="1">
          <mxGeometry x="305" y="290" width="120" height="60" as="geometry" />
        </mxCell>
        <mxCell id="2fNQK_tJIayvAflCLeJH-18" value="Sandboxed" style="text;html=1;align=center;verticalAlign=middle;resizable=0;points=[];autosize=1;strokeColor=none;fillColor=none;" vertex="1" parent="1">
          <mxGeometry x="345" y="242.5" width="80" height="30" as="geometry" />
        </mxCell>
        <mxCell id="2fNQK_tJIayvAflCLeJH-19" value="" style="endArrow=none;html=1;rounded=0;" edge="1" parent="1">
          <mxGeometry width="50" height="50" relative="1" as="geometry">
            <mxPoint x="165" y="590" as="sourcePoint" />
            <mxPoint x="675" y="590" as="targetPoint" />
          </mxGeometry>
        </mxCell>
        <mxCell id="2fNQK_tJIayvAflCLeJH-20" value="&lt;div&gt;Kernel&lt;/div&gt;" style="text;html=1;align=center;verticalAlign=middle;resizable=0;points=[];autosize=1;strokeColor=none;fillColor=none;" vertex="1" parent="1">
          <mxGeometry x="70" y="525" width="60" height="30" as="geometry" />
        </mxCell>
        <mxCell id="2fNQK_tJIayvAflCLeJH-21" value="..." style="whiteSpace=wrap;html=1;" vertex="1" parent="1">
          <mxGeometry x="360" y="510" width="120" height="60" as="geometry" />
        </mxCell>
        <mxCell id="2fNQK_tJIayvAflCLeJH-22" value="..." style="text;html=1;align=center;verticalAlign=middle;resizable=0;points=[];autosize=1;strokeColor=none;fillColor=none;" vertex="1" parent="1">
          <mxGeometry x="570" y="155" width="30" height="30" as="geometry" />
        </mxCell>
        <mxCell id="2fNQK_tJIayvAflCLeJH-23" value="Proprietary algorithms" style="whiteSpace=wrap;html=1;" vertex="1" parent="1">
          <mxGeometry x="180" y="300" width="100" height="40" as="geometry" />
        </mxCell>
        <mxCell id="2fNQK_tJIayvAflCLeJH-24" value="Helper functions" style="whiteSpace=wrap;html=1;" vertex="1" parent="1">
          <mxGeometry x="170" y="420" width="120" height="60" as="geometry" />
        </mxCell>
        <mxCell id="2fNQK_tJIayvAflCLeJH-25" value="Buffer management" style="whiteSpace=wrap;html=1;" vertex="1" parent="1">
          <mxGeometry x="325" y="420" width="120" height="60" as="geometry" />
        </mxCell>
        <mxCell id="2fNQK_tJIayvAflCLeJH-26" value="Plugins" style="whiteSpace=wrap;html=1;" vertex="1" parent="1">
          <mxGeometry x="480" y="420" width="120" height="60" as="geometry" />
        </mxCell>
        <mxCell id="2fNQK_tJIayvAflCLeJH-27" value="..." style="text;html=1;align=center;verticalAlign=middle;resizable=0;points=[];autosize=1;strokeColor=none;fillColor=none;" vertex="1" parent="1">
          <mxGeometry x="635" y="435" width="30" height="30" as="geometry" />
        </mxCell>
        <mxCell id="2fNQK_tJIayvAflCLeJH-28" value="Pipeline handler" style="whiteSpace=wrap;html=1;" vertex="1" parent="1">
          <mxGeometry x="515" y="290" width="120" height="60" as="geometry" />
        </mxCell>
      </root>
    </mxGraphModel>
  </diagram>
</mxfile>
